<?xml version="1.0" standalone="no"?>
<!DOCTYPE svg PUBLIC "-//W3C//DTD SVG 20010904//EN"
 "http://www.w3.org/TR/2001/REC-SVG-20010904/DTD/svg10.dtd">
<svg version="1.0" xmlns="http://www.w3.org/2000/svg"
 width="90.000000pt" height="68.000000pt" viewBox="0 0 90.000000 68.000000"
 preserveAspectRatio="xMidYMid meet">
<metadata>
Created by potrace 1.10, written by Peter Selinger 2001-2011
</metadata>
<g transform="translate(0.000000,68.000000) scale(0.100000,-0.100000)"
fill="#030303" stroke="none">
<path d="M403 461 c-5 -21 -10 -22 -55 -16 -53 8 -78 -4 -78 -36 0 -36 27 -46
167 -63 76 -10 145 -20 153 -22 12 -3 15 -21 13 -95 -1 -51 -6 -96 -11 -101
-5 -5 -62 -7 -128 -6 l-119 3 -5 99 c-3 67 -9 101 -17 104 -10 3 -13 -22 -13
-101 0 -139 -2 -137 162 -137 160 0 158 -1 158 137 0 80 3 102 15 107 22 8 19
53 -4 66 -11 5 -36 10 -55 10 -29 0 -36 4 -36 19 0 28 -20 40 -84 47 -53 6
-58 5 -63 -15z m114 -25 c13 -12 -5 -16 -50 -10 -61 9 -62 28 -2 21 26 -2 49
-7 52 -11z m-45 -37 c84 -12 157 -25 162 -30 21 -19 -28 -19 -168 0 -80 12
-150 21 -156 21 -5 0 -10 7 -10 15 0 19 -10 19 172 -6z"/>
<path d="M178 3 c6 -2 18 -2 25 0 6 3 1 5 -13 5 -14 0 -19 -2 -12 -5z"/>
<path d="M378 3 c7 -3 16 -2 19 1 4 3 -2 6 -13 5 -11 0 -14 -3 -6 -6z"/>
</g>
</svg>
