<?xml version="1.0" standalone="no"?>
<!DOCTYPE svg PUBLIC "-//W3C//DTD SVG 20010904//EN"
 "http://www.w3.org/TR/2001/REC-SVG-20010904/DTD/svg10.dtd">
<svg version="1.0" xmlns="http://www.w3.org/2000/svg"
 width="234.000000pt" height="162.000000pt" viewBox="0 0 234.000000 162.000000"
 preserveAspectRatio="xMidYMid meet">
<metadata>
Created by potrace 1.10, written by Peter Selinger 2001-2011
</metadata>
<g transform="translate(0.000000,162.000000) scale(0.100000,-0.100000)"
fill="#030303" stroke="none">
<path d="M933 1214 c-36 -8 -89 -69 -101 -115 -19 -75 7 -140 73 -184 47 -30
159 -27 203 5 96 71 95 210 -4 274 -27 18 -126 30 -171 20z m144 -59 c12 -8
31 -31 43 -50 28 -45 20 -84 -27 -130 -32 -31 -43 -35 -86 -35 -94 0 -151 67
-127 150 16 55 53 80 119 80 34 0 65 -6 78 -15z"/>
<path d="M1395 1204 c-76 -39 -107 -108 -86 -191 38 -150 259 -165 331 -23 11
22 20 50 20 63 0 59 -60 143 -112 159 -43 12 -123 8 -153 -8z m162 -54 c53
-41 66 -100 36 -148 -32 -49 -54 -61 -114 -62 -48 0 -61 4 -86 28 -45 41 -57
80 -39 124 24 56 59 78 123 78 40 0 62 -6 80 -20z"/>
<path d="M910 797 c-25 -6 -49 -15 -55 -19 -5 -5 -28 -21 -51 -37 -22 -16 -57
-54 -78 -86 -37 -55 -38 -60 -40 -148 -1 -86 0 -92 19 -92 18 0 21 8 25 85 6
88 15 110 70 174 14 16 43 40 65 54 35 22 51 25 126 25 96 0 135 -16 196 -81
51 -54 65 -90 71 -180 4 -78 6 -83 26 -80 20 3 21 8 18 78 -1 41 -9 92 -17
112 -18 47 -15 56 41 102 48 41 135 69 170 55 10 -4 33 -8 50 -8 41 -1 117
-57 159 -116 29 -40 34 -57 40 -130 5 -60 11 -85 22 -89 36 -14 41 20 22 133
-39 226 -299 332 -491 200 -32 -21 -60 -39 -63 -39 -3 0 -31 17 -63 39 -86 58
-162 72 -262 48z"/>
</g>
</svg>
