<?xml version="1.0" encoding="UTF-8"?>
<svg width="702.8px" height="139.6px" viewBox="0 0 702.8 139.6" version="1.1" xmlns="http://www.w3.org/2000/svg" xmlns:xlink="http://www.w3.org/1999/xlink">
    <title>Group</title>
    <g id="Logo" stroke="none" stroke-width="1" fill="none" fill-rule="evenodd">
        <g id="Logo/Brand/PLUS-Diapositive" transform="translate(-68.4, -69)">
            <g id="Group" transform="translate(64, 65)">
                <rect id="Rectangle" x="0" y="0" width="712" height="148"></rect>
                <g id="PLUS_logo" transform="translate(4.4, 4)">
                    <path d="M694.8,18.8 C694.8,27.6 688,34.8 679.6,34.8 C678.8,34.8 677.6,34.8 676.8,34.4 C670.4,33.2 664,32.4 657.2,32.4 C649.6,32.4 636.4,32.8 636.4,41.2 C636.4,58.8 702.8,42 702.8,94 C702.8,130 669.2,139.2 641.2,139.2 C626.8,139.2 614.8,138 601.6,135.6 C594.4,134.4 588.8,127.6 588.8,119.6 L588.8,98 C601.6,103.6 618,106.8 632.4,106.8 C644,106.8 654.4,104.4 654.4,97.6 C654.4,79.6 588,95.6 588,43.6 C588,6.4 624.4,0 653.2,0 C666.8,0 682,2 695.2,4.8 L695.2,18.8 L694.8,18.8 L694.8,18.8 Z" id="Path" fill="#FFFFFF"></path>
                    <path d="M171.2,136.8 C171.2,136.8 171.2,23.2 171.2,18.8 C171.2,10 177.6,2.8 186.4,2.8 C190.4,2.8 255.2,2.8 255.2,2.8 C274.8,2.8 301.6,13.2 301.6,49.2 C301.6,84.4 280.4,98.4 255.2,98.4 L220.4,98.4 L220.4,121.2 C220.4,130 213.6,137.2 205.2,137.2 L171.2,137.2 L171.2,136.8 Z M220,34 L220,67.2 L229.2,67.2 C240.8,67.2 252.8,64.8 252.8,50 C252.8,35.6 240.8,34 229.2,34 L220,34 L220,34 Z" id="Shape" fill="#FFFFFF"></path>
                    <path d="M563.6,81.6 C563.6,125.2 538.4,139.2 500,139.2 C464.4,139.2 436.8,123.6 436.8,84 L436.8,2.4 L470.4,2.4 C478.8,2.4 485.6,9.6 485.6,18.4 L485.6,82 C485.6,94.8 489.2,104.4 500.8,104.4 C513.6,104.4 516.4,95.2 516.4,82.4 L516.4,2.4 L548.8,2.4 C556.8,2.4 564,9.6 564,18.4 L564,81.6 L563.6,81.6 Z" id="Path" fill="#FFFFFF"></path>
                    <path d="M322.8,136.8 L322.8,2.4 L356.4,2.4 C364.4,2.4 371.6,9.6 371.6,18.4 L371.6,97.2 L420.4,97.2 L420.4,120.8 C420.4,129.6 413.6,136.8 405.2,136.8 L322.8,136.8 L322.8,136.8 Z" id="Path" fill="#FFFFFF"></path>
                    <path d="M61.2,32.8 L61.2,54.8 C61.2,60.8 56.8,65.6 50.8,65.6 L30.4,65.6 C13.6,65.6 0,51.2 0,33.2 C0,15.6 13.6,0.8 30.4,0.8 C47.6,0.8 61.2,15.2 61.2,32.8 L61.2,32.8 Z" id="Path" fill="#FFFFFF"></path>
                    <path d="M61.2,107.2 L61.2,85.6 C61.2,79.6 56.8,74.8 50.8,74.8 L30.4,74.8 C13.6,74.8 0,89.2 0,107.2 C0,125.2 13.6,139.6 30.4,139.6 C47.6,139.6 61.2,125.2 61.2,107.2 L61.2,107.2 Z" id="Path" fill="#554DA7"></path>
                    <path d="M69.6,107.2 L69.6,85.6 C69.6,79.6 74,74.8 80,74.8 L100.4,74.8 C117.2,74.8 131.2,89.2 131.2,107.2 C131.2,125.2 117.2,139.6 100.4,139.6 C83.6,139.6 69.6,125.2 69.6,107.2 L69.6,107.2 Z" id="Path" fill="#227647"></path>
                    <path d="M70,32.8 L70,54.8 C70,60.8 74.4,65.6 80,65.6 L100.4,65.6 C117.6,65.6 131.2,51.2 131.2,33.2 C131.2,15.6 117.6,0.8 100.4,0.8 C83.6,0.8 70,15.2 70,32.8 L70,32.8 Z" id="Path" fill="#E3131D"></path>
                </g>
            </g>
        </g>
    </g>
</svg>